<svg xmlns="http://www.w3.org/2000/svg" viewBox="0 0 24 24" id="ionic"><path fill="#4E8FF6" d="M12 6.529a5.475 5.475 0 0 0-5.471 5.47 5.475 5.475 0 0 0 5.47 5.47 5.475 5.475 0 0 0 5.47-5.47A5.479 5.479 0 0 0 12 6.529z"></path><circle cx="19.85" cy="4.522" r="2.494" fill="#4E8FF6"></circle><path fill="#4E8FF6" d="M12 24c6.619 0 12-5.381 12-12 0-1.73-.361-3.403-1.078-4.973l-.001-.001-.103-.23-.169.188c-.408.464-.928.82-1.505 1.036l-.159.061.066.155a9.586 9.586 0 0 1 .75 3.749v.01c0 5.405-4.397 9.806-9.806 9.806s-9.802-4.397-9.802-9.802 4.402-9.806 9.806-9.806c1.467 0 2.883.319 4.2.947l.155.075.066-.155c.254-.582.63-1.07 1.099-1.447l.007-.006.197-.159-.225-.117A11.745 11.745 0 0 0 12.028 0H12C5.381 0 0 5.381 0 12s5.381 12 12 12z"></path></svg>