<svg xmlns="http://www.w3.org/2000/svg" viewBox="0 0 24 24" id="sass"><path fill="#C76495" d="M12 24c6.627 0 12-5.373 12-12S18.627 0 12 0 0 5.373 0 12s5.373 12 12 12zM6.411 6.759c1.549-1.449 3.704-2.56 5.693-3.267 3.345-1.189 6.88-.488 7.422 1.645l-.073-.067c.525 2.1-1.29 4.606-3.614 5.505-2.07.809-3.796.675-4.5.45-.811-.27-1.276-.795-1.396-1.095-.045-.12-.12-.315 0-.375.075-.046.105-.031.314.194.196.211.961.78 2.431.615 3.855-.434 6.164-3.42 5.431-5.024-.51-1.125-3.466-1.636-7.171.21-4.515 2.25-4.77 4.109-4.8 4.814-.105 1.935 2.4 2.955 3.75 4.41.044.03.075.06.105.105.404-.165.975-.24 1.875-.256 2.189-.029 3.42 1.41 3.375 2.7-.045 1.021-.976 1.441-1.141 1.471-.119.015-.195.015-.21-.075-.014-.061.031-.09.181-.181.151-.09.584-.405.674-.944.091-.54-.329-1.86-2.43-2.1-.75-.091-1.334-.031-1.83.104.362.795.436 2.415-.404 3.676-.87 1.289-2.49 2.085-4.065 1.649-.51-.134-1.29-1.185-.615-2.655.63-1.396 3.319-2.745 3.686-2.925v-.006c-1.246-1.073-4.276-2.519-4.703-4.73-.121-.627.172-2.127 2.015-3.848z"></path><path fill="#C76495" d="M6.803 19.761c.418.242 1.392-.046 2.09-.805.229-.25.415-.52.555-.81.026-.056.054-.115.078-.176l.065-.18c.18-.544.199-1.147.024-1.792l-.108.061v.003s-1.249.591-2.12 1.509c-.81.855-1.034 1.928-.584 2.19z"></path></svg>